# xmcd
#
# Track frame offsets: 
#        188
#        2623
#        14593
#        28478
#        41583
#        53673
#        64113
#        76440
#        88200
#        103283
#        114978
#        126065
#        139200
#        150183
#        161553
#        171410
#        183938
#        198298
#        212850
#        223018
#        238000
#        251540
#        264435
#        275860
#        287053
#        299183
#
# Disc length: 4163 seconds
#
# Revision: 3
# Processed by: cddbd v1.5.2PL0 Copyright (c) Steve Scherf et al.
# Submitted via: ExactAudioCopy v0.99pb4
#
DISCID=8d10411a
DTITLE=Various Artist - Blue Christmas
DYEAR=1994
DGENRE=Holiday
TTITLE0=Johnny Otis, Little Esther Phillips and Mel Walker - Christmas G
TTITLE0=reetings
TTITLE1=Clyde McPhatter with The Drifters - White Christmas
TTITLE2=Roy Milton - Christmas Time Blues
TTITLE3=The Orioles - What Are You Doing New Year's Eve?
TTITLE4=Jimmy Liggins - I Want My Baby For Christmas
TTITLE5=Mabel Scott - Boogie Woogie Santa Claus
TTITLE6=Billy Ward and His Dominoes - Christmas In Heaven
TTITLE7=Lowell Fulson - Best Wishes
TTITLE8=Little Esther Phillips and Mel Walker - Faraway Christmas Blues
TTITLE9=Big Joe Turner - Christmas Date Blues
TTITLE10=Sam Cooke with The Soul Stirrers - Any Day Now
TTITLE11=Amos Milburn and His Aladdin Chicken Shakers - Let's Make Chris
TTITLE11=tmas Merry Baby
TTITLE12=The Moonglows - Hey Santa Claus
TTITLE13=Bull Moose Jackson - I'll Be Home for Christmas
TTITLE14=Lowell Fulson - Lonsome Christmas
TTITLE15=Julia Lee - Christmas Spirit
TTITLE16=Louis Jordan - May Everyday Be Christmas
TTITLE17=Nat King Cole - The Christmas Song
TTITLE18=Sugar Chile Robinson - Christmas Boogie
TTITLE19=The Orioles - Lonely Christmas
TTITLE20=Jimmy Witherspoon - Oh, How I Hate to See Christmas Come Arou
TTITLE20=nd
TTITLE21=Smookey Hogg - I Want My Baby For Christmas
TTITLE22=The Pilgrim Travelers - I'll Be Home For Christmas
TTITLE23=The Moonglows - Just A Lonely Christmas
TTITLE24=Charles Brown - Merry Christmas Baby
TTITLE25=The Ravens - Silent Night
EXTD=
EXTT0=
EXTT1=
EXTT2=
EXTT3=
EXTT4=
EXTT5=
EXTT6=
EXTT7=
EXTT8=
EXTT9=
EXTT10=
EXTT11=
EXTT12=
EXTT13=
EXTT14=
EXTT15=
EXTT16=
EXTT17=
EXTT18=
EXTT19=
EXTT20=
EXTT21=
EXTT22=
EXTT23=
EXTT24=
EXTT25=
PLAYORDER=
